<mxfile host="Electron" agent="Mozilla/5.0 (Windows NT 10.0; Win64; x64) AppleWebKit/537.36 (KHTML, like Gecko) draw.io/26.1.1 Chrome/132.0.6834.210 Electron/34.3.3 Safari/537.36" version="26.1.1">
  <diagram name="Page-1" id="e1LoSJxUErw8_BF-bvL_">
    <mxGraphModel dx="989" dy="610" grid="1" gridSize="10" guides="1" tooltips="1" connect="1" arrows="1" fold="1" page="1" pageScale="1" pageWidth="1654" pageHeight="1169" math="0" shadow="0">
      <root>
        <mxCell id="0" />
        <mxCell id="1" parent="0" />
        <mxCell id="GbCVjtFKowTqCFk7iLHB-1" value="" style="rounded=0;whiteSpace=wrap;html=1;" vertex="1" parent="1">
          <mxGeometry x="240" y="200" width="160" height="200" as="geometry" />
        </mxCell>
        <mxCell id="GbCVjtFKowTqCFk7iLHB-2" value="" style="endArrow=none;html=1;rounded=0;entryX=0.999;entryY=0.207;entryDx=0;entryDy=0;entryPerimeter=0;" edge="1" parent="1" target="GbCVjtFKowTqCFk7iLHB-1">
          <mxGeometry width="50" height="50" relative="1" as="geometry">
            <mxPoint x="240" y="240" as="sourcePoint" />
            <mxPoint x="490" y="270" as="targetPoint" />
          </mxGeometry>
        </mxCell>
        <mxCell id="GbCVjtFKowTqCFk7iLHB-3" value="" style="endArrow=none;html=1;rounded=0;entryX=0.5;entryY=0;entryDx=0;entryDy=0;exitX=0.5;exitY=1;exitDx=0;exitDy=0;" edge="1" parent="1" source="GbCVjtFKowTqCFk7iLHB-1" target="GbCVjtFKowTqCFk7iLHB-1">
          <mxGeometry width="50" height="50" relative="1" as="geometry">
            <mxPoint x="370" y="320" as="sourcePoint" />
            <mxPoint x="420" y="270" as="targetPoint" />
          </mxGeometry>
        </mxCell>
        <mxCell id="GbCVjtFKowTqCFk7iLHB-4" value="previous FAT" style="text;html=1;align=center;verticalAlign=middle;whiteSpace=wrap;rounded=0;" vertex="1" parent="1">
          <mxGeometry x="240" y="200" width="80" height="40" as="geometry" />
        </mxCell>
        <mxCell id="GbCVjtFKowTqCFk7iLHB-5" value="next FAT" style="text;html=1;align=center;verticalAlign=middle;whiteSpace=wrap;rounded=0;" vertex="1" parent="1">
          <mxGeometry x="320" y="200" width="80" height="40" as="geometry" />
        </mxCell>
        <mxCell id="GbCVjtFKowTqCFk7iLHB-6" value="ID file 1" style="text;html=1;align=center;verticalAlign=middle;whiteSpace=wrap;rounded=0;" vertex="1" parent="1">
          <mxGeometry x="240" y="240" width="80" height="40" as="geometry" />
        </mxCell>
        <mxCell id="GbCVjtFKowTqCFk7iLHB-7" value="ID file 2" style="text;html=1;align=center;verticalAlign=middle;whiteSpace=wrap;rounded=0;" vertex="1" parent="1">
          <mxGeometry x="240" y="280" width="80" height="40" as="geometry" />
        </mxCell>
        <mxCell id="GbCVjtFKowTqCFk7iLHB-8" value="ID file 3" style="text;html=1;align=center;verticalAlign=middle;whiteSpace=wrap;rounded=0;" vertex="1" parent="1">
          <mxGeometry x="240" y="320" width="80" height="40" as="geometry" />
        </mxCell>
        <mxCell id="GbCVjtFKowTqCFk7iLHB-9" value="ID file 4" style="text;html=1;align=center;verticalAlign=middle;whiteSpace=wrap;rounded=0;" vertex="1" parent="1">
          <mxGeometry x="240" y="360" width="80" height="40" as="geometry" />
        </mxCell>
        <mxCell id="GbCVjtFKowTqCFk7iLHB-10" value="&lt;font style=&quot;font-size: 10px;&quot;&gt;Pointer first page file 1&lt;/font&gt;" style="text;html=1;align=center;verticalAlign=middle;whiteSpace=wrap;rounded=0;" vertex="1" parent="1">
          <mxGeometry x="320" y="240" width="80" height="40" as="geometry" />
        </mxCell>
        <mxCell id="GbCVjtFKowTqCFk7iLHB-14" value="&lt;font style=&quot;font-size: 10px;&quot;&gt;Pointer first page file 2&lt;/font&gt;" style="text;html=1;align=center;verticalAlign=middle;whiteSpace=wrap;rounded=0;" vertex="1" parent="1">
          <mxGeometry x="320" y="280" width="80" height="40" as="geometry" />
        </mxCell>
        <mxCell id="GbCVjtFKowTqCFk7iLHB-15" value="&lt;font style=&quot;font-size: 10px;&quot;&gt;Pointer first page file 3&lt;/font&gt;" style="text;html=1;align=center;verticalAlign=middle;whiteSpace=wrap;rounded=0;" vertex="1" parent="1">
          <mxGeometry x="320" y="320" width="80" height="40" as="geometry" />
        </mxCell>
        <mxCell id="GbCVjtFKowTqCFk7iLHB-16" value="&lt;font style=&quot;font-size: 10px;&quot;&gt;Pointer first page file 4&lt;/font&gt;" style="text;html=1;align=center;verticalAlign=middle;whiteSpace=wrap;rounded=0;" vertex="1" parent="1">
          <mxGeometry x="320" y="360" width="80" height="40" as="geometry" />
        </mxCell>
        <mxCell id="GbCVjtFKowTqCFk7iLHB-17" value="" style="endArrow=none;dashed=1;html=1;rounded=0;entryX=0;entryY=0;entryDx=0;entryDy=0;exitX=1;exitY=0;exitDx=0;exitDy=0;" edge="1" parent="1" source="GbCVjtFKowTqCFk7iLHB-14" target="GbCVjtFKowTqCFk7iLHB-7">
          <mxGeometry width="50" height="50" relative="1" as="geometry">
            <mxPoint x="370" y="350" as="sourcePoint" />
            <mxPoint x="420" y="300" as="targetPoint" />
          </mxGeometry>
        </mxCell>
        <mxCell id="GbCVjtFKowTqCFk7iLHB-18" value="" style="endArrow=none;dashed=1;html=1;rounded=0;entryX=0;entryY=0;entryDx=0;entryDy=0;exitX=1;exitY=0;exitDx=0;exitDy=0;" edge="1" parent="1">
          <mxGeometry width="50" height="50" relative="1" as="geometry">
            <mxPoint x="400" y="320" as="sourcePoint" />
            <mxPoint x="240" y="320" as="targetPoint" />
          </mxGeometry>
        </mxCell>
        <mxCell id="GbCVjtFKowTqCFk7iLHB-19" value="" style="endArrow=none;dashed=1;html=1;rounded=0;entryX=0;entryY=0;entryDx=0;entryDy=0;exitX=1;exitY=0;exitDx=0;exitDy=0;" edge="1" parent="1">
          <mxGeometry width="50" height="50" relative="1" as="geometry">
            <mxPoint x="400" y="360" as="sourcePoint" />
            <mxPoint x="240" y="360" as="targetPoint" />
          </mxGeometry>
        </mxCell>
        <mxCell id="GbCVjtFKowTqCFk7iLHB-52" value="" style="edgeStyle=orthogonalEdgeStyle;rounded=0;orthogonalLoop=1;jettySize=auto;html=1;" edge="1" parent="1" target="GbCVjtFKowTqCFk7iLHB-50">
          <mxGeometry relative="1" as="geometry">
            <mxPoint x="680" y="119.99999999999989" as="sourcePoint" />
          </mxGeometry>
        </mxCell>
        <mxCell id="GbCVjtFKowTqCFk7iLHB-47" value="" style="edgeStyle=orthogonalEdgeStyle;rounded=0;orthogonalLoop=1;jettySize=auto;html=1;" edge="1" parent="1" source="GbCVjtFKowTqCFk7iLHB-26" target="GbCVjtFKowTqCFk7iLHB-46">
          <mxGeometry relative="1" as="geometry" />
        </mxCell>
        <mxCell id="GbCVjtFKowTqCFk7iLHB-26" value="Add entry to FAT" style="rounded=0;whiteSpace=wrap;html=1;" vertex="1" parent="1">
          <mxGeometry x="640" y="280" width="80" height="40" as="geometry" />
        </mxCell>
        <mxCell id="GbCVjtFKowTqCFk7iLHB-35" value="" style="curved=1;endArrow=classic;html=1;rounded=0;entryX=0;entryY=0.5;entryDx=0;entryDy=0;exitX=1;exitY=0;exitDx=0;exitDy=0;" edge="1" parent="1" source="GbCVjtFKowTqCFk7iLHB-26">
          <mxGeometry width="50" height="50" relative="1" as="geometry">
            <mxPoint x="777" y="240" as="sourcePoint" />
            <mxPoint x="840" y="120" as="targetPoint" />
            <Array as="points">
              <mxPoint x="770" y="260" />
              <mxPoint x="760" y="220" />
              <mxPoint x="780" y="170" />
            </Array>
          </mxGeometry>
        </mxCell>
        <mxCell id="GbCVjtFKowTqCFk7iLHB-38" value="" style="edgeStyle=orthogonalEdgeStyle;rounded=0;orthogonalLoop=1;jettySize=auto;html=1;" edge="1" parent="1" source="GbCVjtFKowTqCFk7iLHB-36" target="GbCVjtFKowTqCFk7iLHB-37">
          <mxGeometry relative="1" as="geometry" />
        </mxCell>
        <mxCell id="GbCVjtFKowTqCFk7iLHB-39" value="found" style="edgeLabel;html=1;align=center;verticalAlign=middle;resizable=0;points=[];" vertex="1" connectable="0" parent="GbCVjtFKowTqCFk7iLHB-38">
          <mxGeometry x="-0.0976" relative="1" as="geometry">
            <mxPoint x="-17" y="2" as="offset" />
          </mxGeometry>
        </mxCell>
        <mxCell id="GbCVjtFKowTqCFk7iLHB-41" value="" style="edgeStyle=orthogonalEdgeStyle;rounded=0;orthogonalLoop=1;jettySize=auto;html=1;" edge="1" parent="1" source="GbCVjtFKowTqCFk7iLHB-36" target="GbCVjtFKowTqCFk7iLHB-40">
          <mxGeometry relative="1" as="geometry" />
        </mxCell>
        <mxCell id="GbCVjtFKowTqCFk7iLHB-42" value="not found" style="edgeLabel;html=1;align=center;verticalAlign=middle;resizable=0;points=[];" vertex="1" connectable="0" parent="GbCVjtFKowTqCFk7iLHB-41">
          <mxGeometry x="-0.6248" y="2" relative="1" as="geometry">
            <mxPoint x="15" y="-6" as="offset" />
          </mxGeometry>
        </mxCell>
        <mxCell id="GbCVjtFKowTqCFk7iLHB-36" value="Scroll through FAT pages and search for an entry with ID = 0" style="rounded=0;whiteSpace=wrap;html=1;" vertex="1" parent="1">
          <mxGeometry x="840" y="90" width="120" height="60" as="geometry" />
        </mxCell>
        <mxCell id="GbCVjtFKowTqCFk7iLHB-37" value="Replace ID and address by the new ones" style="rounded=0;whiteSpace=wrap;html=1;" vertex="1" parent="1">
          <mxGeometry x="840" y="190" width="120" height="60" as="geometry" />
        </mxCell>
        <mxCell id="GbCVjtFKowTqCFk7iLHB-40" value="Create new FAT page and set the ID and address as first entry" style="rounded=0;whiteSpace=wrap;html=1;" vertex="1" parent="1">
          <mxGeometry x="1020" y="90" width="120" height="60" as="geometry" />
        </mxCell>
        <mxCell id="GbCVjtFKowTqCFk7iLHB-43" value="" style="endArrow=none;dashed=1;html=1;dashPattern=1 3;strokeWidth=2;rounded=0;entryX=0.5;entryY=1;entryDx=0;entryDy=0;" edge="1" parent="1" target="GbCVjtFKowTqCFk7iLHB-40">
          <mxGeometry width="50" height="50" relative="1" as="geometry">
            <mxPoint x="1080" y="300" as="sourcePoint" />
            <mxPoint x="1080" y="190" as="targetPoint" />
          </mxGeometry>
        </mxCell>
        <mxCell id="GbCVjtFKowTqCFk7iLHB-44" value="" style="endArrow=none;dashed=1;html=1;dashPattern=1 3;strokeWidth=2;rounded=0;entryX=0.5;entryY=1;entryDx=0;entryDy=0;" edge="1" parent="1">
          <mxGeometry width="50" height="50" relative="1" as="geometry">
            <mxPoint x="900" y="300" as="sourcePoint" />
            <mxPoint x="899.76" y="250" as="targetPoint" />
          </mxGeometry>
        </mxCell>
        <mxCell id="GbCVjtFKowTqCFk7iLHB-45" value="" style="endArrow=none;dashed=1;html=1;dashPattern=1 3;strokeWidth=2;rounded=0;exitX=1;exitY=0.5;exitDx=0;exitDy=0;endFill=1;startFill=1;startArrow=classic;" edge="1" parent="1" source="GbCVjtFKowTqCFk7iLHB-26">
          <mxGeometry width="50" height="50" relative="1" as="geometry">
            <mxPoint x="910" y="310" as="sourcePoint" />
            <mxPoint x="1080" y="300" as="targetPoint" />
          </mxGeometry>
        </mxCell>
        <mxCell id="GbCVjtFKowTqCFk7iLHB-49" value="" style="edgeStyle=orthogonalEdgeStyle;rounded=0;orthogonalLoop=1;jettySize=auto;html=1;" edge="1" parent="1" source="GbCVjtFKowTqCFk7iLHB-46" target="GbCVjtFKowTqCFk7iLHB-48">
          <mxGeometry relative="1" as="geometry" />
        </mxCell>
        <mxCell id="GbCVjtFKowTqCFk7iLHB-46" value="while" style="rounded=1;whiteSpace=wrap;html=1;" vertex="1" parent="1">
          <mxGeometry x="640" y="340" width="80" height="30" as="geometry" />
        </mxCell>
        <mxCell id="GbCVjtFKowTqCFk7iLHB-54" value="" style="edgeStyle=orthogonalEdgeStyle;rounded=0;orthogonalLoop=1;jettySize=auto;html=1;entryX=0;entryY=0.5;entryDx=0;entryDy=0;exitX=1;exitY=0.5;exitDx=0;exitDy=0;" edge="1" parent="1" source="GbCVjtFKowTqCFk7iLHB-48" target="GbCVjtFKowTqCFk7iLHB-53">
          <mxGeometry relative="1" as="geometry">
            <Array as="points">
              <mxPoint x="760" y="420" />
              <mxPoint x="760" y="420" />
            </Array>
          </mxGeometry>
        </mxCell>
        <mxCell id="GbCVjtFKowTqCFk7iLHB-55" value="true" style="edgeLabel;html=1;align=center;verticalAlign=middle;resizable=0;points=[];labelBackgroundColor=none;" vertex="1" connectable="0" parent="GbCVjtFKowTqCFk7iLHB-54">
          <mxGeometry x="-0.1898" y="2" relative="1" as="geometry">
            <mxPoint x="8" y="-4" as="offset" />
          </mxGeometry>
        </mxCell>
        <mxCell id="GbCVjtFKowTqCFk7iLHB-64" value="" style="edgeStyle=orthogonalEdgeStyle;rounded=0;orthogonalLoop=1;jettySize=auto;html=1;" edge="1" parent="1" source="GbCVjtFKowTqCFk7iLHB-48" target="GbCVjtFKowTqCFk7iLHB-63">
          <mxGeometry relative="1" as="geometry" />
        </mxCell>
        <mxCell id="GbCVjtFKowTqCFk7iLHB-71" value="false" style="edgeLabel;html=1;align=center;verticalAlign=middle;resizable=0;points=[];labelBackgroundColor=none;" vertex="1" connectable="0" parent="GbCVjtFKowTqCFk7iLHB-64">
          <mxGeometry x="0.2279" y="2" relative="1" as="geometry">
            <mxPoint x="11" as="offset" />
          </mxGeometry>
        </mxCell>
        <mxCell id="GbCVjtFKowTqCFk7iLHB-48" value="&lt;font style=&quot;font-size: 10px;&quot;&gt;not end of file&lt;/font&gt;" style="rhombus;whiteSpace=wrap;html=1;" vertex="1" parent="1">
          <mxGeometry x="640" y="400" width="80" height="40" as="geometry" />
        </mxCell>
        <mxCell id="GbCVjtFKowTqCFk7iLHB-51" value="" style="edgeStyle=orthogonalEdgeStyle;rounded=0;orthogonalLoop=1;jettySize=auto;html=1;" edge="1" parent="1" source="GbCVjtFKowTqCFk7iLHB-50" target="GbCVjtFKowTqCFk7iLHB-26">
          <mxGeometry relative="1" as="geometry" />
        </mxCell>
        <mxCell id="GbCVjtFKowTqCFk7iLHB-50" value="Find free page to start the file" style="rounded=0;whiteSpace=wrap;html=1;" vertex="1" parent="1">
          <mxGeometry x="630" y="170" width="100" height="60" as="geometry" />
        </mxCell>
        <mxCell id="GbCVjtFKowTqCFk7iLHB-70" value="" style="edgeStyle=orthogonalEdgeStyle;rounded=0;orthogonalLoop=1;jettySize=auto;html=1;" edge="1" parent="1" source="GbCVjtFKowTqCFk7iLHB-53" target="GbCVjtFKowTqCFk7iLHB-58">
          <mxGeometry relative="1" as="geometry" />
        </mxCell>
        <mxCell id="GbCVjtFKowTqCFk7iLHB-53" value="&lt;font style=&quot;font-size: 10px;&quot;&gt;Find a free page for the next iteration&lt;/font&gt;" style="rounded=0;whiteSpace=wrap;html=1;" vertex="1" parent="1">
          <mxGeometry x="857" y="390" width="60" height="60" as="geometry" />
        </mxCell>
        <mxCell id="GbCVjtFKowTqCFk7iLHB-61" value="" style="edgeStyle=orthogonalEdgeStyle;rounded=0;orthogonalLoop=1;jettySize=auto;html=1;" edge="1" parent="1" source="GbCVjtFKowTqCFk7iLHB-58" target="GbCVjtFKowTqCFk7iLHB-60">
          <mxGeometry relative="1" as="geometry" />
        </mxCell>
        <mxCell id="GbCVjtFKowTqCFk7iLHB-58" value="&lt;font style=&quot;font-size: 10px;&quot;&gt;Write at the previous free page address a pointer to the next free page followed by file data&lt;/font&gt;" style="whiteSpace=wrap;html=1;rounded=0;" vertex="1" parent="1">
          <mxGeometry x="960" y="325" width="120" height="60" as="geometry" />
        </mxCell>
        <mxCell id="GbCVjtFKowTqCFk7iLHB-62" value="" style="edgeStyle=orthogonalEdgeStyle;rounded=0;orthogonalLoop=1;jettySize=auto;html=1;" edge="1" parent="1" source="GbCVjtFKowTqCFk7iLHB-60" target="GbCVjtFKowTqCFk7iLHB-46">
          <mxGeometry relative="1" as="geometry" />
        </mxCell>
        <mxCell id="GbCVjtFKowTqCFk7iLHB-60" value="&lt;font size=&quot;1&quot;&gt;Mark current page as used in bitmap&lt;/font&gt;" style="rounded=0;whiteSpace=wrap;html=1;" vertex="1" parent="1">
          <mxGeometry x="800" y="335" width="87" height="40" as="geometry" />
        </mxCell>
        <mxCell id="GbCVjtFKowTqCFk7iLHB-66" value="" style="edgeStyle=orthogonalEdgeStyle;rounded=0;orthogonalLoop=1;jettySize=auto;html=1;" edge="1" parent="1" source="GbCVjtFKowTqCFk7iLHB-63" target="GbCVjtFKowTqCFk7iLHB-65">
          <mxGeometry relative="1" as="geometry" />
        </mxCell>
        <mxCell id="GbCVjtFKowTqCFk7iLHB-63" value="&lt;font style=&quot;font-size: 10px;&quot;&gt;Change next page pointer to 0&lt;/font&gt;" style="rounded=0;whiteSpace=wrap;html=1;" vertex="1" parent="1">
          <mxGeometry x="630" y="470" width="100" height="40" as="geometry" />
        </mxCell>
        <mxCell id="GbCVjtFKowTqCFk7iLHB-68" value="" style="edgeStyle=orthogonalEdgeStyle;rounded=0;orthogonalLoop=1;jettySize=auto;html=1;" edge="1" parent="1" source="GbCVjtFKowTqCFk7iLHB-65" target="GbCVjtFKowTqCFk7iLHB-67">
          <mxGeometry relative="1" as="geometry" />
        </mxCell>
        <mxCell id="GbCVjtFKowTqCFk7iLHB-65" value="&lt;font style=&quot;font-size: 10px;&quot;&gt;Add a file terminator and padd the rest of the page&lt;/font&gt;" style="rounded=0;whiteSpace=wrap;html=1;" vertex="1" parent="1">
          <mxGeometry x="830" y="465" width="100" height="50" as="geometry" />
        </mxCell>
        <mxCell id="GbCVjtFKowTqCFk7iLHB-67" value="end" style="ellipse;whiteSpace=wrap;html=1;" vertex="1" parent="1">
          <mxGeometry x="1000" y="465" width="120" height="50" as="geometry" />
        </mxCell>
        <mxCell id="GbCVjtFKowTqCFk7iLHB-69" value="Add file named&lt;div&gt;&amp;nbsp;&lt;i&gt;fileName&lt;/i&gt;&amp;nbsp;to&amp;nbsp;&lt;i&gt;ID&lt;/i&gt;&lt;/div&gt;" style="ellipse;whiteSpace=wrap;html=1;" vertex="1" parent="1">
          <mxGeometry x="620" y="90" width="120" height="50" as="geometry" />
        </mxCell>
      </root>
    </mxGraphModel>
  </diagram>
</mxfile>
